<?xml version="1.0" encoding="utf-8"?>
<!-- Generator: Adobe Illustrator 23.0.1, SVG Export Plug-In . SVG Version: 6.00 Build 0)  -->
<svg version="1.1" id="Layer_1" xmlns="http://www.w3.org/2000/svg" xmlns:xlink="http://www.w3.org/1999/xlink" x="0px" y="0px"
	 viewBox="0 0 173.6 146.6" style="enable-background:new 0 0 173.6 146.6;" xml:space="preserve">
<style type="text/css">
	.st0{fill:url(#SVGID_1_);}
</style>
<title>New_logo</title>
<g>

		<radialGradient id="SVGID_1_" cx="-215.6772" cy="465.5074" r="1.0474" gradientTransform="matrix(96.78 0 0 -89.4543 20960.0488 41721.5156)" gradientUnits="userSpaceOnUse">
		<stop  offset="0" style="stop-color:#FFB900"/>
		<stop  offset="0.6" style="stop-color:#F95D8F"/>
		<stop  offset="0.9991" style="stop-color:#F95353"/>
	</radialGradient>
	<path class="st0" d="M130,77.5c-18.4,0-33.3,14.9-33.3,33.3c0,18.4,14.9,33.3,33.3,33.3c18.4,0,33.3-14.9,33.3-33.3
		C163.3,92.4,148.4,77.5,130,77.5L130,77.5z M43.6,77.5c-18.4,0-33.3,14.9-33.3,33.3c0,18.4,14.9,33.3,33.3,33.3
		c18.4,0,33.3-14.9,33.3-33.3C76.9,92.4,62,77.5,43.6,77.5L43.6,77.5z M120.1,35.9c0,18.4-14.9,33.3-33.3,33.3
		c-18.4,0-33.3-14.9-33.3-33.3c0-18.4,14.9-33.3,33.3-33.3C105.2,2.6,120.1,17.5,120.1,35.9L120.1,35.9z"/>
</g>
</svg>
